<?xml version="1.0" encoding="utf-8"?>
<!-- Generator: Adobe Illustrator 25.2.0, SVG Export Plug-In . SVG Version: 6.00 Build 0)  -->
<svg version="1.1" id="Layer_1" xmlns="http://www.w3.org/2000/svg" xmlns:xlink="http://www.w3.org/1999/xlink" x="0px" y="0px"
	 viewBox="0 0 595.28 841.89" style="enable-background:new 0 0 595.28 841.89;" xml:space="preserve">
<style type="text/css">
	.st0{fill:#0C3B5B;}
	.st1{fill:url(#SVGID_5_);}
	.st2{fill:#808080;}
	.st3{fill:#A3A3A3;}
	.st4{fill:#919191;}
	.st5{fill:url(#SVGID_6_);}
	.st6{fill:#595A5E;}
	.st7{fill:url(#SVGID_9_);}
	.st8{fill:url(#SVGID_12_);}
	.st9{opacity:0.68;}
	.st10{clip-path:url(#SVGID_14_);fill:#005787;}
	.st11{opacity:0.51;}
	.st12{clip-path:url(#SVGID_16_);fill:#00A1E8;}
	.st13{fill:#FFFFFF;}
	.st14{fill:#0079BB;}
	.st15{fill:none;}
	.st16{fill:#FFFFFF;stroke:#606161;stroke-width:0.25;stroke-miterlimit:10;}
	.st17{fill:none;stroke:#000000;stroke-width:0.5;stroke-miterlimit:10;}
	.st18{opacity:0.77;fill:#FFFFFF;}
</style>
<g>
	<path class="st0" d="M574.65,178.63c-17.87,21.61-36.65,42.53-53.43,64.95c-64.52,86.2-96.55,186.64-124.05,288.77
		c-14.23,52.87-25.9,106.43-39.92,159.36c-4.68,17.68-11.37,35.3-20.07,51.36c-18.49,34.09-45.26,45.22-82.37,37.01
		c-33.52-7.42-57.62-36.11-60.32-71.43c-3.16-41.28,9.59-79.02,26.29-115.64c73.75-161.81,180.54-296.8,326.12-400.11
		c8.31-5.9,16.77-11.59,25.16-17.37C572.92,176.55,573.79,177.59,574.65,178.63z"/>
	<path class="st14" d="M452.22,86.4c-7.84,56.9-23.09,110.34-49.71,160.41c-48.43,91.1-122.85,152.58-218.42,188.32
		c-43.94,16.43-89.47,26.9-134-1.22c-40.03-25.28-39.8-76.53,3.86-95.25c31.46-13.49,66.91-17.87,100.76-25.56
		c102.19-23.23,196.89-59.57,258.12-151.69C427.93,138.68,438.46,112.93,452.22,86.4z"/>
	<path class="st14" d="M224.76,222.81c-47.14-0.43-82.3-35.94-81.76-82.58c0.54-47.11,36.14-81.64,83.46-80.97
		c46.13,0.65,81.48,37.19,81.23,83.97C307.46,187.82,270.58,223.22,224.76,222.81z"/>
</g>
</svg>
