<?xml version="1.0" encoding="utf-8"?>
<!-- Generator: Adobe Illustrator 25.2.0, SVG Export Plug-In . SVG Version: 6.00 Build 0)  -->
<svg version="1.1" id="Layer_1" xmlns="http://www.w3.org/2000/svg" xmlns:xlink="http://www.w3.org/1999/xlink" x="0px" y="0px"
	 viewBox="0 0 841.89 595.28" style="enable-background:new 0 0 841.89 595.28;" xml:space="preserve">
<style type="text/css">
	.st0{fill:#0C3B5B;}
	.st1{fill:url(#SVGID_5_);}
	.st2{fill:#808080;}
	.st3{fill:#A3A3A3;}
	.st4{fill:#919191;}
	.st5{fill:url(#SVGID_6_);}
	.st6{fill:#595A5E;}
	.st7{fill:url(#SVGID_9_);}
	.st8{fill:url(#SVGID_12_);}
	.st9{opacity:0.68;}
	.st10{clip-path:url(#SVGID_14_);fill:#005787;}
	.st11{opacity:0.51;}
	.st12{clip-path:url(#SVGID_16_);fill:#00A1E8;}
	.st13{fill:#FFFFFF;}
	.st14{fill:#0079BB;}
	.st15{fill:none;}
	.st16{fill:#FFFFFF;stroke:#606161;stroke-width:0.25;stroke-miterlimit:10;}
	.st17{fill:none;stroke:#000000;stroke-width:0.5;stroke-miterlimit:10;}
	.st18{opacity:0.77;fill:#FFFFFF;}
	.st19{font-family:'MTNBrighterSans-ExtraBold';}
	.st20{font-size:123.0193px;}
	.st21{font-family:'Montserrat-Medium';}
	.st22{font-size:26.1278px;}
</style>
<g>
	<text transform="matrix(1 0 0 1 339.8783 303.7757)"><tspan x="0" y="0" class="st0 st19 st20">Bernat</tspan><tspan x="-24.11" y="102.99" class="st0 st19 st20">Medical</tspan></text>
	<text transform="matrix(1 0 0 1 326.7132 462.6643)" class="st0 st21 st22">Quality Care at your Convenience</text>
	<path class="st0" d="M356.36,166.94c-9.64,11.65-19.77,22.94-28.82,35.03c-34.8,46.49-52.07,100.66-66.9,155.75
		c-7.68,28.51-13.97,57.4-21.53,85.95c-2.53,9.54-6.13,19.04-10.83,27.7c-9.97,18.38-24.41,24.39-44.43,19.96
		c-18.08-4-31.08-19.48-32.53-38.53c-1.7-22.27,5.17-42.62,14.18-62.37c39.78-87.27,97.37-160.08,175.89-215.79
		c4.48-3.18,9.05-6.25,13.57-9.37C355.43,165.83,355.89,166.39,356.36,166.94z"/>
	<path class="st14" d="M290.33,117.2c-4.23,30.69-12.45,59.51-26.81,86.52c-26.12,49.13-66.26,82.3-117.8,101.57
		c-23.7,8.86-48.26,14.51-72.27-0.66c-21.59-13.64-21.46-41.28,2.08-51.37c16.97-7.27,36.09-9.64,54.34-13.79
		c55.12-12.53,106.19-32.13,139.21-81.81C277.23,145.4,282.91,131.51,290.33,117.2z"/>
	<path class="st14" d="M167.65,190.77c-25.42-0.23-44.39-19.38-44.1-44.54c0.29-25.41,19.49-44.03,45.02-43.67
		c24.88,0.35,43.94,20.06,43.81,45.29C212.25,171.9,192.36,191,167.65,190.77z"/>
</g>
</svg>
